<svg xmlns="http://www.w3.org/2000/svg" viewBox="0 0 32 32" fill="none">
  <!-- Background circle -->
  <circle cx="16" cy="16" r="16" fill="#1e3a8a"/>
  <!-- Open book shape -->
  <path d="M7 10.5C7 9.67 7.67 9 8.5 9H14.5C15.33 9 16 9.67 16 10.5V22.5C16 22.5 14 21.5 11.5 21.5C9 21.5 7 22.5 7 22.5V10.5Z" fill="white" opacity="0.9"/>
  <path d="M25 10.5C25 9.67 24.33 9 23.5 9H17.5C16.67 9 16 9.67 16 10.5V22.5C16 22.5 18 21.5 20.5 21.5C23 21.5 25 22.5 25 22.5V10.5Z" fill="white" opacity="0.9"/>
  <!-- Spine line -->
  <line x1="16" y1="9" x2="16" y2="22.5" stroke="#1e3a8a" stroke-width="0.5"/>
  <!-- Left page lines -->
  <line x1="9" y1="13" x2="14.5" y2="13" stroke="#1e3a8a" stroke-width="0.8" opacity="0.4"/>
  <line x1="9" y1="15.5" x2="14.5" y2="15.5" stroke="#1e3a8a" stroke-width="0.8" opacity="0.4"/>
  <line x1="9" y1="18" x2="13" y2="18" stroke="#1e3a8a" stroke-width="0.8" opacity="0.4"/>
  <!-- Right page lines -->
  <line x1="17.5" y1="13" x2="23" y2="13" stroke="#1e3a8a" stroke-width="0.8" opacity="0.4"/>
  <line x1="17.5" y1="15.5" x2="23" y2="15.5" stroke="#1e3a8a" stroke-width="0.8" opacity="0.4"/>
  <line x1="17.5" y1="18" x2="21" y2="18" stroke="#1e3a8a" stroke-width="0.8" opacity="0.4"/>
</svg>
